<?xml version="1.0" encoding="UTF-8" standalone="no"?>
<!-- Created with Inkscape (http://www.inkscape.org/) -->

<svg
   xmlns:dc="http://purl.org/dc/elements/1.1/"
   xmlns:cc="http://creativecommons.org/ns#"
   xmlns:rdf="http://www.w3.org/1999/02/22-rdf-syntax-ns#"
   xmlns:svg="http://www.w3.org/2000/svg"
   xmlns="http://www.w3.org/2000/svg"
   xmlns:sodipodi="http://sodipodi.sourceforge.net/DTD/sodipodi-0.dtd"
   xmlns:inkscape="http://www.inkscape.org/namespaces/inkscape"
   width="16pt"
   height="16pt"
   viewBox="0 0 19.999999 19.999999"
   id="svg4278"
   version="1.1"
   inkscape:version="0.91 r13725"
   sodipodi:docname="translate_inactive.svg">
  <defs
     id="defs4280" />
  <sodipodi:namedview
     id="base"
     pagecolor="#ffffff"
     bordercolor="#666666"
     borderopacity="1.0"
     inkscape:pageopacity="0.0"
     inkscape:pageshadow="2"
     inkscape:zoom="8.16"
     inkscape:cx="3.3855976"
     inkscape:cy="30.912939"
     inkscape:document-units="px"
     inkscape:current-layer="layer1"
     showgrid="false"
     units="pt"
     inkscape:window-width="1440"
     inkscape:window-height="837"
     inkscape:window-x="-8"
     inkscape:window-y="-8"
     inkscape:window-maximized="1" />
  <metadata
     id="metadata4283">
    <rdf:RDF>
      <cc:Work
         rdf:about="">
        <dc:format>image/svg+xml</dc:format>
        <dc:type
           rdf:resource="http://purl.org/dc/dcmitype/StillImage" />
        <dc:title></dc:title>
      </cc:Work>
    </rdf:RDF>
  </metadata>
  <g
     inkscape:label="Layer 1"
     inkscape:groupmode="layer"
     id="layer1"
     transform="translate(0,-1032.3622)">
    <path
       style="fill:#777777;fill-opacity:1"
       d="m 9.402067,1049.8044 c -3.265156,-0.2138 -6.014566,-2.4748 -6.817087,-5.606 -0.181973,-0.71 -0.231456,-1.1144 -0.231456,-1.8916 0,-0.7772 0.04949,-1.1816 0.231456,-1.8916 0.323161,-1.2609 0.953577,-2.3747 1.886705,-3.3334 0.40394,-0.415 0.783503,-0.735 1.204215,-1.0151 1.784644,-1.1884 3.952867,-1.5561 6.053517,-1.0267 1.475727,0.3718 2.884328,1.2631 3.878813,2.4543 2.255165,2.7012 2.332814,6.6127 0.186525,9.3959 -1.375055,1.783 -3.456509,2.8422 -5.724318,2.9128 -0.257323,0.01 -0.55809,0.01 -0.66837,10e-4 z m 1.220653,-0.9826 c 2.729648,-0.3379 4.95164,-2.3067 5.599278,-4.961 0.229896,-0.9423 0.240776,-2.0246 0.02969,-2.9527 -0.02987,-0.1314 -0.0649,-0.2388 -0.07785,-0.2388 -0.013,0 -0.11326,0.032 -0.222898,0.072 -0.224604,0.081 -0.458303,0.09 -1.115781,0.046 l -0.415153,-0.028 0.123524,0.2209 0.123524,0.2208 -0.176229,0.1124 c -0.313561,0.2 -0.662741,0.4012 -0.673252,0.3881 -0.0056,-0.01 -0.16518,-0.261 -0.354544,-0.5642 -0.189364,-0.3033 -0.348391,-0.5564 -0.353391,-0.5625 -0.0088,-0.011 -0.08601,0.028 -0.1741,0.087 -0.03231,0.022 -0.0074,0.103 0.104649,0.3436 0.194444,0.417 0.344448,0.895 0.409251,1.3042 l 0.05276,0.3331 -0.116456,0.141 c -0.06406,0.077 -0.319744,0.3881 -0.5682,0.6902 l -0.451738,0.5492 -0.02191,0.4534 c -0.04226,0.8745 -0.1141,1.4467 -0.256226,2.0407 l -0.06797,0.284 -0.550138,0.4679 c -0.302576,0.2573 -0.570515,0.466 -0.595422,0.4638 -0.02491,0 -0.211738,-0.1127 -0.415184,-0.2453 -0.41096,-0.268 -0.384388,-0.2237 -0.421586,-0.7031 -0.05628,-0.7252 -0.20035,-1.6148 -0.40478,-2.4995 l -0.118108,-0.5111 -0.337297,-0.5415 c -0.185515,-0.2979 -0.348318,-0.5543 -0.361787,-0.5698 -0.01341,-0.015 -0.367762,-0.08 -0.787319,-0.1428 -0.419556,-0.063 -0.772137,-0.1254 -0.78351,-0.1388 -0.01137,-0.013 -0.105286,-0.2236 -0.208679,-0.467 l -0.187999,-0.4426 0.132677,-0.6587 c 0.07298,-0.3623 0.143883,-0.6683 0.157573,-0.68 0.01369,-0.012 0.21287,-0.086 0.442621,-0.1647 0.229752,-0.079 0.654391,-0.2383 0.943639,-0.3541 l 0.52591,-0.2106 0.142462,0.079 c 0.200482,0.1108 0.441098,0.1732 0.961215,0.2492 0.255529,0.037 0.737831,0.1458 1.112309,0.2501 0.699222,0.1949 1.282587,0.3202 1.487678,0.3196 l 0.123619,-4e-4 0.157995,-0.3923 c 0.0869,-0.2157 0.167458,-0.4186 0.179022,-0.4507 0.01864,-0.052 -0.0037,-0.058 -0.197515,-0.058 -0.17969,0 -0.221423,-0.01 -0.234738,-0.058 -0.0089,-0.032 -0.06534,-0.3253 -0.12542,-0.6514 -0.06008,-0.3261 -0.119028,-0.6088 -0.131011,-0.6281 -0.01855,-0.03 -1.089527,-0.1005 -1.116472,-0.073 -0.0047,0 0.0087,0.1107 0.03002,0.2352 0.0358,0.2087 0.05909,0.2519 0.297165,0.551 0.142079,0.1784 0.249638,0.3244 0.239021,0.3244 -0.01056,0 -0.09548,-0.039 -0.188607,-0.086 -0.09311,-0.047 -0.17549,-0.08 -0.183048,-0.072 -0.0076,0.01 0.0091,0.079 0.0371,0.1579 0.02796,0.079 0.04691,0.147 0.04214,0.1506 -0.0047,0 -0.144057,0.039 -0.309478,0.08 -0.165421,0.04 -0.330844,0.082 -0.367603,0.092 -0.03676,0.01 -0.0028,-0.029 0.07519,-0.088 0.07813,-0.059 0.141225,-0.1166 0.140242,-0.1288 -9.83e-4,-0.012 -0.05056,-0.1571 -0.110147,-0.322 l -0.108359,-0.3 -0.264427,-0.1897 -0.264426,-0.1897 -0.210738,0.185 -0.210738,0.185 -0.256359,-0.041 c -0.140998,-0.023 -0.274554,-0.048 -0.296792,-0.057 -0.02413,-0.01 -0.111338,0.1168 -0.216237,0.3126 -0.09669,0.1804 -0.179398,0.3327 -0.183787,0.3385 -0.0043,0.01 -0.159942,-0.066 -0.345672,-0.1591 l -0.337691,-0.1694 0,-0.4873 0,-0.4873 0.157282,-0.1841 0.157283,-0.1841 0.669826,0.011 0.669826,0.011 0.577823,-0.2628 c 0.722472,-0.3286 0.799686,-0.4028 0.914371,-0.8785 0.04098,-0.17 0.06551,-0.3182 0.05444,-0.3292 -0.03358,-0.034 -0.474349,-0.1386 -0.519028,-0.1236 -0.07149,0.024 -0.04678,0.06 0.09569,0.1402 l 0.137455,0.077 -0.220321,0.2203 c -0.138238,0.1382 -0.231649,0.2082 -0.250725,0.1879 -0.01672,-0.018 -0.06448,-0.1273 -0.106098,-0.2432 l -0.07569,-0.2107 -0.120166,0.1852 c -0.06609,0.1019 -0.129143,0.1854 -0.140133,0.1857 -0.01097,2e-4 -0.19725,-0.1523 -0.413922,-0.339 l -0.393949,-0.3393 -0.388122,0.039 c -1.507268,0.1505 -2.832234,0.7609 -3.923899,1.8078 -1.179086,1.1307 -1.883123,2.6447 -1.991795,4.2832 -0.07836,1.1814 0.145744,2.2978 0.673355,3.3547 0.314168,0.6294 0.662905,1.1182 1.177176,1.65 1.011222,1.0457 2.356525,1.7299 3.783429,1.9244 0.403366,0.055 1.300725,0.064 1.682379,0.016 z m -1.162782,-11.617 c -0.0287,-0.011 -8.65e-4,-0.067 0.08622,-0.1728 0.189131,-0.229 0.189697,-0.2315 0.06356,-0.2843 -0.08572,-0.036 -0.13905,-0.098 -0.223858,-0.2617 l -0.111324,-0.2147 0.06055,-0.1586 c 0.03329,-0.087 0.0715,-0.1466 0.08491,-0.1319 0.0134,0.015 0.185242,0.2129 0.38188,0.4406 l 0.35752,0.4141 -0.193809,0.1958 c -0.174653,0.1765 -0.207124,0.1956 -0.328529,0.1932 -0.0741,-10e-4 -0.153792,-0.01 -0.177102,-0.02 z"
       id="path4297"
       inkscape:connector-curvature="0" />
  </g>
</svg>
